<?xml version="1.0" standalone="no"?>
<!DOCTYPE svg PUBLIC "-//W3C//DTD SVG 20010904//EN"
 "http://www.w3.org/TR/2001/REC-SVG-20010904/DTD/svg10.dtd">
<svg version="1.0" xmlns="http://www.w3.org/2000/svg"
 width="887.000000pt" height="887.000000pt" viewBox="0 0 887.000000 887.000000"
 preserveAspectRatio="xMidYMid meet">
<metadata>
Created by potrace 1.14, written by Peter Selinger 2001-2017
</metadata>
<g transform="translate(0.000000,887.000000) scale(0.100000,-0.100000)"
fill="#000000" stroke="none">
<path d="M2765 7949 c-126 -4 -252 -12 -279 -18 -126 -30 -190 -97 -224 -236
-12 -51 -16 -390 -24 -2235 -5 -1196 -7 -2643 -4 -3215 5 -1153 4 -1135 69
-1232 45 -66 98 -100 187 -119 67 -14 150 -15 809 -4 558 8 892 8 1400 -1 719
-13 1609 -7 1731 11 97 15 171 50 214 103 54 67 67 102 76 206 25 262 35 1235
36 3286 0 1172 4 2240 8 2375 7 248 -5 617 -25 764 -22 165 -117 268 -277 301
-60 13 -321 15 -1769 17 -934 2 -1801 0 -1928 -3z m3529 -559 c14 -5 34 -18
46 -30 20 -20 20 -30 20 -491 l0 -471 -29 -29 -29 -29 -1817 0 -1816 0 -24 26
c-14 15 -27 41 -30 58 -3 17 -5 230 -3 472 3 426 4 443 23 464 11 12 29 26 40
31 29 11 3588 11 3619 -1z m-983 -1459 l29 -29 0 -342 0 -342 -29 -29 -29 -29
-342 0 -342 0 -29 29 -29 29 0 345 0 344 26 27 27 26 344 0 345 0 29 -29z
m970 0 l29 -29 0 -342 0 -342 -29 -29 -29 -29 -342 0 -342 0 -29 29 -29 29 0
345 0 344 26 27 27 26 344 0 345 0 29 -29z m-2900 -920 l29 -29 0 -342 0 -342
-29 -29 -29 -29 -342 0 -342 0 -29 29 -29 29 0 336 c0 350 3 374 44 394 13 7
148 11 359 11 l339 1 29 -29z m960 0 l29 -29 0 -342 0 -342 -29 -29 -29 -29
-342 0 -342 0 -29 29 -29 29 0 336 c0 350 3 374 44 394 13 7 148 11 359 11
l339 1 29 -29z m970 0 l29 -29 0 -342 0 -342 -29 -29 -29 -29 -342 0 -342 0
-29 29 -29 29 0 336 c0 350 3 374 44 394 13 7 148 11 359 11 l339 1 29 -29z
m970 0 l29 -29 0 -342 0 -342 -29 -29 -29 -29 -342 0 -342 0 -29 29 -29 29 0
336 c0 350 3 374 44 394 13 7 148 11 359 11 l339 1 29 -29z m-2900 -930 l29
-29 0 -342 0 -342 -29 -29 -29 -29 -342 0 -342 0 -29 29 -29 29 0 342 0 342
29 29 29 29 342 0 342 0 29 -29z m960 0 l29 -29 0 -342 0 -342 -29 -29 -29
-29 -342 0 -342 0 -29 29 -29 29 0 342 0 342 29 29 29 29 342 0 342 0 29 -29z
m970 0 l29 -29 0 -342 0 -342 -29 -29 -29 -29 -342 0 -342 0 -29 29 -29 29 0
342 0 342 29 29 29 29 342 0 342 0 29 -29z m970 0 l29 -29 0 -342 0 -342 -29
-29 -29 -29 -342 0 -342 0 -29 29 -29 29 0 342 0 342 29 29 29 29 342 0 342 0
29 -29z m-2900 -920 l29 -29 0 -342 0 -342 -29 -29 -29 -29 -342 0 -342 0 -29
29 -29 29 0 342 0 342 29 29 29 29 342 0 342 0 29 -29z m960 0 l29 -29 0 -342
0 -342 -29 -29 -29 -29 -342 0 -342 0 -29 29 -29 29 0 342 0 342 29 29 29 29
342 0 342 0 29 -29z m970 0 l29 -29 0 -342 0 -342 -29 -29 -29 -29 -342 0
-342 0 -29 29 -29 29 0 342 0 342 29 29 29 29 342 0 342 0 29 -29z m970 0 l29
-29 0 -342 0 -342 -29 -29 -29 -29 -342 0 -342 0 -29 29 -29 29 0 342 0 342
29 29 29 29 342 0 342 0 29 -29z m-2900 -930 l29 -29 0 -342 0 -342 -29 -29
-29 -29 -342 0 -342 0 -29 29 -29 29 0 342 0 342 29 29 29 29 342 0 342 0 29
-29z m960 0 l29 -29 0 -342 0 -342 -29 -29 -29 -29 -342 0 -342 0 -29 29 -29
29 0 342 0 342 29 29 29 29 342 0 342 0 29 -29z"/>
</g>
</svg>
