<?xml version="1.0" standalone="no"?>
<!DOCTYPE svg PUBLIC "-//W3C//DTD SVG 20010904//EN"
 "http://www.w3.org/TR/2001/REC-SVG-20010904/DTD/svg10.dtd">
<svg version="1.0" xmlns="http://www.w3.org/2000/svg"
 width="512.000000pt" height="512.000000pt" viewBox="0 0 512.000000 512.000000"
 preserveAspectRatio="xMidYMid meet">
<metadata>
Created by potrace 1.14, written by Peter Selinger 2001-2017
</metadata>
<g transform="translate(0.000000,512.000000) scale(0.100000,-0.100000)"
fill="#000000" stroke="none">
<path d="M1640 4575 c0 -6 -21 -10 -50 -9 -35 2 -48 -1 -43 -9 5 -8 2 -8 -8 0
-18 14 -58 14 -78 -1 -11 -8 -13 -8 -8 1 5 8 0 11 -13 10 -11 -1 -20 -6 -20
-12 0 -5 -5 -3 -10 5 -5 8 -10 10 -10 4 0 -11 -35 -28 -52 -25 -5 1 -8 -4 -8
-10 0 -5 -5 -7 -12 -3 -6 4 -8 3 -5 -3 4 -6 -2 -21 -13 -33 -18 -21 -25 -41
-21 -62 0 -5 -4 -8 -9 -8 -12 0 -9 -22 5 -32 7 -5 6 -8 0 -8 -6 0 -12 -29 -13
-66 -1 -37 -5 -70 -8 -75 -3 -5 1 -9 8 -9 8 0 9 -3 3 -8 -5 -4 -10 -34 -10
-67 0 -33 5 -63 10 -67 7 -5 7 -8 0 -8 -5 0 -10 -16 -10 -35 0 -19 4 -35 8
-35 4 0 3 -9 -3 -20 -8 -15 -8 -20 2 -20 8 0 9 -3 3 -8 -5 -4 -10 -25 -10 -47
0 -22 5 -43 10 -47 6 -5 6 -8 -2 -8 -10 0 -9 -43 2 -77 2 -7 -1 -13 -8 -13 -8
0 -8 -3 2 -9 11 -7 11 -9 0 -14 -12 -4 -11 -7 1 -16 8 -6 10 -11 4 -11 -8 0
-9 -11 -4 -35 5 -24 4 -35 -4 -35 -6 0 -4 -5 4 -10 8 -5 10 -10 4 -10 -6 0
-10 -10 -8 -22 1 -13 3 -23 4 -23 7 0 3 -116 -5 -119 -5 -3 -5 -5 2 -5 7 -1
10 -8 7 -16 -4 -9 0 -15 7 -15 10 0 11 -3 3 -8 -15 -9 -14 -82 1 -82 6 0 7 -3
0 -8 -13 -9 -15 -113 -2 -105 6 3 7 1 3 -6 -14 -22 -17 -63 -5 -55 8 5 9 3 3
-7 -14 -22 -14 -70 -1 -62 9 5 9 3 1 -8 -7 -8 -11 -25 -10 -39 1 -14 -1 -33
-6 -42 -5 -9 -4 -19 2 -23 5 -3 7 -12 3 -20 -3 -9 0 -22 7 -30 11 -13 10 -14
-5 -9 -14 6 -16 4 -10 -6 11 -17 12 -70 2 -70 -4 0 -3 -9 3 -20 8 -15 8 -20
-2 -20 -8 0 -9 -3 -3 -8 11 -8 14 -72 3 -72 -3 0 -3 -13 2 -30 5 -16 6 -30 2
-30 -4 0 -5 -40 -2 -90 3 -50 2 -90 -1 -90 -8 0 -3 -45 6 -59 3 -6 0 -11 -7
-11 -10 0 -10 -2 1 -9 8 -5 9 -11 3 -15 -11 -7 -5 -44 11 -64 7 -9 6 -11 -6
-6 -14 5 -15 1 -7 -25 5 -17 5 -31 0 -31 -5 0 -5 -13 0 -30 5 -17 5 -30 0 -30
-5 0 -5 -13 0 -30 5 -16 5 -30 1 -30 -5 0 -6 -11 -3 -25 2 -14 9 -22 16 -19 6
3 4 0 -5 -8 -11 -9 -13 -21 -8 -40 4 -17 3 -29 -4 -32 -7 -2 -6 -5 3 -5 13 -1
13 -2 0 -12 -11 -8 -12 -12 -2 -16 6 -2 9 -9 6 -15 -11 -18 -10 -258 1 -258 7
0 7 -3 0 -8 -12 -8 -15 -1042 -3 -1042 3 0 5 -11 3 -25 -1 -14 2 -25 6 -25 5
0 9 -6 9 -14 0 -8 9 -18 20 -21 17 -5 24 -21 22 -46 -1 -3 5 -6 13 -6 8 0 11
5 8 10 -4 6 4 3 16 -6 13 -8 30 -13 39 -10 9 4 13 2 9 -4 -8 -12 11 -12 30 0
6 4 15 2 19 -4 5 -8 3 -9 -6 -4 -9 6 -11 4 -6 -4 6 -9 12 -8 26 4 14 12 20 13
26 4 5 -8 3 -10 -6 -4 -9 6 -11 4 -6 -4 6 -9 12 -8 26 4 14 12 20 13 26 4 5
-8 3 -10 -6 -4 -9 5 -11 4 -6 -4 4 -6 13 -8 19 -4 6 4 23 7 37 7 14 1 31 5 39
10 10 6 12 6 7 -2 -10 -16 7 -15 23 1 11 10 13 10 7 0 -9 -15 20 -18 29 -3 4
7 13 7 26 0 14 -8 19 -7 19 1 0 8 4 9 13 0 10 -8 17 -7 25 1 9 9 12 9 12 0 0
-7 5 -12 11 -12 5 0 8 4 5 8 -3 5 1 9 9 9 8 0 12 -5 8 -10 -3 -5 4 -4 16 2 16
9 21 9 21 -1 0 -8 3 -9 8 -3 9 13 32 18 32 7 0 -10 30 -9 47 1 7 5 22 3 34 -4
15 -8 19 -8 15 0 -4 6 -2 11 3 11 6 0 11 -6 11 -12 0 -10 2 -10 9 0 11 19 15
19 34 4 11 -9 17 -10 22 -2 5 8 11 8 19 1 7 -6 16 -8 19 -5 10 10 67 12 73 3
3 -5 11 -9 17 -9 7 0 6 4 -3 10 -10 6 -1 8 28 7 23 -1 42 -5 42 -10 0 -4 6 -5
12 0 19 12 62 11 71 -1 6 -8 10 -7 14 2 4 9 8 10 18 2 10 -8 15 -8 20 0 5 8
11 7 23 -2 12 -10 14 -10 8 0 -4 6 -2 12 3 12 6 0 11 -6 11 -12 0 -10 3 -9 9
1 6 9 10 10 16 2 5 -9 10 -9 21 0 11 9 14 8 14 -2 0 -12 2 -12 9 0 6 9 11 10
15 2 5 -8 13 -8 27 -1 14 8 19 7 19 -1 0 -8 4 -9 13 0 8 6 17 8 21 4 11 -11
40 -10 48 2 5 6 8 5 8 -4 0 -10 3 -11 14 -2 10 8 16 9 21 1 3 -6 11 -8 16 -5
5 4 9 0 9 -7 0 -9 3 -9 8 -2 14 20 41 24 51 6 7 -11 11 -12 11 -4 0 7 5 10 10
7 6 -4 18 -1 27 7 13 10 15 10 9 0 -5 -9 0 -12 21 -12 15 1 43 -1 61 -3 18 -2
32 1 32 7 0 6 7 2 15 -8 13 -17 15 -17 15 -3 0 14 4 15 26 7 33 -13 37 -13 28
3 -5 8 -2 8 9 -2 12 -9 17 -10 17 -2 0 7 5 9 11 5 19 -11 139 -12 133 0 -3 6
1 3 9 -7 11 -13 16 -15 20 -5 3 10 9 10 24 1 16 -9 24 -8 38 5 10 9 15 12 11
6 -3 -7 1 -15 10 -18 9 -3 12 -2 8 5 -4 7 13 9 55 6 39 -3 62 0 65 7 3 7 5 7
5 -1 1 -7 6 -13 12 -13 5 0 7 5 3 12 -5 7 -3 8 5 3 16 -9 104 -10 119 -1 8 4
12 0 13 -11 0 -16 1 -16 9 2 5 11 9 14 9 6 1 -11 6 -10 26 3 14 9 25 14 25 10
0 -4 7 -1 15 6 13 11 15 10 9 -6 -5 -16 -3 -16 14 4 21 23 38 30 26 11 -4 -8
0 -8 15 0 11 7 21 17 21 24 0 8 -4 7 -11 -3 -9 -13 -10 -13 -6 0 2 8 10 14 17
12 6 -1 14 7 17 18 5 17 8 18 21 8 13 -11 14 -10 3 10 -10 19 -9 23 4 29 13 5
14 7 3 14 -11 8 -11 10 1 18 11 7 11 9 0 14 -11 4 -11 6 -1 6 7 1 10 6 7 11
-4 6 -1 18 7 27 7 9 8 14 2 10 -19 -11 -24 19 -7 44 9 12 11 19 5 15 -8 -5
-11 1 -10 18 1 15 7 26 12 26 5 0 2 6 -9 13 -11 9 -14 16 -7 21 6 3 9 18 6 32
-3 19 -1 24 8 18 9 -5 8 -2 -1 10 -12 14 -12 19 -2 25 10 6 9 12 -4 25 -15 15
-15 16 2 16 10 0 14 4 8 8 -15 10 -19 46 -5 37 9 -6 9 -2 1 14 -9 16 -9 21 1
21 10 0 10 2 1 8 -12 8 -13 29 0 49 4 6 3 15 -3 18 -8 5 -8 11 -1 19 6 7 8 16
4 20 -4 3 -8 16 -10 27 -2 14 1 18 9 13 10 -6 10 -5 1 7 -10 12 -10 18 -1 27
9 9 9 12 0 12 -14 0 -12 21 3 32 7 5 6 8 0 8 -15 0 -16 40 -2 40 8 0 8 3 2 8
-13 9 -19 46 -7 38 6 -3 8 2 5 14 -3 11 -10 17 -17 13 -6 -3 -3 3 7 14 13 14
15 23 7 28 -8 5 -8 10 0 20 8 9 8 15 0 20 -6 4 -7 12 0 24 6 12 5 22 -2 29 -8
8 -8 15 1 26 9 10 9 16 1 21 -8 5 -8 11 -1 19 6 7 8 16 4 20 -12 12 -12 36 0
36 8 0 7 3 -1 9 -17 11 -17 21 0 32 7 5 8 9 2 9 -6 0 -11 7 -11 15 0 8 5 15
10 15 5 0 5 6 -2 13 -8 10 -7 17 2 27 9 10 9 11 0 6 -16 -9 -16 -1 -3 24 7 13
7 21 0 25 -8 5 -8 11 0 20 8 9 8 15 0 20 -7 4 -7 12 0 25 7 13 7 21 -1 26 -8
4 -7 9 2 15 12 7 12 9 0 9 -11 0 -11 3 -1 15 10 12 10 15 0 15 -10 0 -10 3 0
15 10 12 10 15 0 15 -9 0 -9 4 -2 13 7 8 7 18 2 27 -5 9 -5 19 2 27 7 9 7 13
-2 13 -10 0 -10 3 0 15 10 12 10 15 0 15 -10 0 -10 3 0 15 10 12 10 15 -1 15
-9 1 -8 5 5 15 18 13 18 15 3 15 -14 0 -16 4 -7 19 7 14 7 22 -1 27 -8 4 -7 9
2 15 12 8 11 11 -1 19 -12 8 -12 10 -1 10 10 0 11 3 2 14 -9 11 -9 15 0 18 8
3 9 9 4 18 -11 18 -14 51 -4 44 4 -2 7 5 6 16 -1 11 -6 20 -11 20 -5 0 -1 7
10 16 10 8 14 13 7 10 -13 -7 -12 31 0 51 4 6 3 14 -2 18 -5 3 -7 15 -5 28 6
26 7 33 1 70 -2 15 0 27 6 27 7 0 7 4 0 11 -8 8 -8 20 -3 35 6 15 5 26 -1 30
-8 4 -7 9 2 15 11 7 9 9 -6 9 -11 0 -15 3 -10 8 16 11 18 65 2 57 -6 -4 -4 0
6 8 14 11 15 16 5 20 -10 4 -10 6 0 6 10 1 10 6 2 21 -8 15 -8 20 2 20 9 0 9
3 -2 10 -8 5 -10 10 -4 10 12 0 11 41 -1 59 -3 6 0 11 7 11 9 0 9 3 -2 10 -9
6 -11 10 -3 10 7 0 10 7 7 15 -4 8 -11 12 -18 9 -6 -3 -3 1 7 9 14 11 15 16 5
20 -10 4 -10 6 1 6 11 1 11 4 1 16 -7 8 -8 15 -3 15 11 0 9 42 -2 59 -3 6 -1
11 6 11 7 0 4 7 -7 15 -15 12 -15 14 -2 9 14 -5 16 -1 12 22 -3 15 -7 31 -10
36 -3 4 1 8 8 9 7 0 4 4 -7 9 -14 6 -15 9 -5 9 17 1 20 45 5 58 -4 5 -5 2 0
-6 6 -10 4 -12 -4 -7 -8 5 -9 12 -2 19 14 17 12 88 -2 81 -7 -3 -3 2 7 10 15
12 16 16 5 16 -8 0 -10 3 -4 8 13 9 11 50 -3 64 -7 7 -7 16 1 28 8 14 7 23 -4
36 -8 10 -9 15 -3 11 19 -11 24 19 7 44 -9 12 -12 19 -6 16 6 -4 13 2 16 13 3
11 1 18 -4 14 -5 -3 -9 0 -9 5 0 6 5 11 11 11 5 0 7 5 4 10 -4 6 -12 8 -18 4
-7 -3 -4 1 6 9 11 9 14 18 8 21 -6 4 -7 15 -1 30 4 13 4 29 0 37 -6 8 -4 16 3
21 8 5 6 8 -6 8 -17 0 -17 2 -3 15 17 17 11 48 -8 39 -6 -3 -2 2 8 10 11 9 14
16 7 16 -7 0 -9 5 -5 12 11 17 12 48 2 42 -12 -8 -10 10 3 23 8 8 8 13 0 17
-8 5 -8 13 -1 26 7 13 6 22 -4 32 -11 11 -11 16 1 27 12 11 12 16 -2 38 -10
14 -12 22 -6 19 6 -4 11 -3 11 3 0 5 -5 13 -10 16 -8 5 -7 12 2 23 11 12 11
16 0 20 -10 3 -9 7 4 16 13 10 14 15 4 21 -9 6 -11 4 -5 -6 5 -8 4 -10 0 -6
-12 10 -15 38 -4 31 5 -3 9 -1 9 5 0 5 -5 13 -12 17 -8 5 -6 11 6 19 15 12 15
13 0 19 -14 5 -14 9 -3 23 8 10 9 14 2 10 -6 -4 -15 -2 -19 4 -4 7 -3 9 4 5 6
-3 13 -2 17 4 3 5 0 10 -7 10 -9 0 -9 3 2 10 8 5 10 10 4 10 -7 0 -15 7 -18
16 -4 9 -2 13 5 8 6 -3 3 5 -6 19 -9 15 -14 31 -10 37 3 5 -1 10 -9 10 -9 0
-16 6 -16 14 0 8 -5 18 -12 22 -7 4 -8 3 -4 -4 5 -8 2 -10 -8 -6 -9 3 -13 10
-10 15 5 9 0 11 -28 13 -7 1 -19 8 -26 16 -8 8 -11 9 -7 3 3 -7 1 -13 -4 -13
-6 0 -11 6 -11 13 0 8 -4 7 -10 -3 -5 -8 -10 -10 -10 -4 0 6 -7 11 -15 11 -8
0 -15 -4 -15 -9 0 -5 -5 -6 -10 -3 -6 4 -7 12 -3 18 4 7 0 6 -10 -2 -9 -7 -17
-10 -17 -5 0 5 -5 2 -10 -6 -5 -8 -10 -10 -10 -4 0 6 -22 11 -55 11 -33 0 -52
-4 -48 -10 4 -6 1 -7 -8 -1 -21 13 -51 16 -44 4 3 -6 -1 -7 -9 -4 -9 3 -13 11
-9 18 5 8 3 8 -8 0 -8 -5 -25 -9 -39 -8 -14 1 -30 -2 -37 -8 -7 -5 -14 -5 -17
1 -4 7 -15 7 -30 1 -13 -5 -27 -6 -30 -2 -4 3 -18 8 -32 10 -19 2 -24 -1 -18
-10 6 -10 4 -10 -7 -2 -16 12 -87 13 -106 1 -6 -4 -14 -3 -17 2 -7 10 -25 9
-43 -2 -7 -4 -16 0 -22 10 -6 10 -11 13 -11 6 0 -6 -9 -10 -20 -8 -11 2 -20
-2 -20 -8 0 -8 -3 -9 -8 -1 -8 12 -71 13 -89 1 -6 -4 -15 -3 -18 3 -5 8 -11 8
-20 0 -9 -8 -14 -8 -17 1 -3 9 -9 9 -25 1 -11 -6 -23 -8 -27 -5 -12 12 -56 11
-56 -1 0 -7 -3 -7 -8 -1 -10 15 -32 17 -46 5 -7 -5 -16 -7 -20 -3 -11 11 -36
12 -36 2 0 -6 -7 -6 -18 0 -13 7 -23 6 -30 -1 -7 -7 -12 -8 -12 -2 0 5 -9 10
-20 11 -11 1 -20 -3 -20 -8 0 -6 -6 -7 -12 -2 -20 12 -38 12 -64 3 -20 -8 -24
-6 -24 8 0 11 -3 13 -8 6 -4 -6 -16 -10 -27 -8 -11 2 -23 -2 -27 -9 -6 -9 -8
-9 -8 0 0 7 -10 10 -25 7 -16 -3 -25 0 -25 8 0 9 -3 8 -10 -2 -7 -11 -12 -12
-21 -3 -14 14 -42 5 -32 -11 5 -7 2 -7 -8 1 -8 7 -28 11 -44 9 -17 -1 -36 2
-42 7 -9 6 -15 4 -19 -8 -5 -13 -9 -14 -15 -4 -9 16 -49 20 -49 5 0 -6 -5 -4
-10 4 -7 11 -10 11 -10 2 0 -10 -5 -10 -20 -2 -15 8 -20 8 -20 -2 0 -9 -3 -9
-10 2 -6 10 -10 11 -10 3 0 -7 -5 -13 -11 -13 -5 0 -8 4 -5 9 8 12 -27 8 -36
-4 -5 -6 -8 -6 -8 1 0 6 -7 11 -15 11 -8 0 -11 -5 -8 -10 4 -7 -1 -8 -13 -3
-32 14 -58 12 -72 -4 -8 -8 -11 -10 -8 -3 4 6 2 14 -4 18 -5 3 -10 0 -10 -7 0
-9 -3 -9 -10 2 -7 11 -10 11 -10 2 0 -9 -5 -10 -18 -3 -13 7 -23 6 -31 -2 -9
-9 -14 -8 -21 3 -5 8 -10 10 -10 5z"/>
</g>
</svg>
